<svg xmlns="http://www.w3.org/2000/svg" width="128" height="128" viewBox="0 0 128 128"><title>fractal-logo</title><defs><style>.fractal-bg { fill: #1a1a2e; } .fractal-1 { fill: #ff3e00; } .fractal-2 { fill: #ff6b00; } .fractal-3 { fill: #ff9500; } .fractal-4 { fill: #ffb700; }</style></defs><rect class="fractal-bg" width="128" height="128"/><g transform="translate(64, 64)"><polygon class="fractal-1" points="-31.17,-18 -31.17,18 0,36 31.17,18 31.17,-18 0,-36"/><polygon class="fractal-2" points="-20.78,-12 -20.78,12 0,24 20.78,12 20.78,-12 0,-24"/><polygon class="fractal-3" points="-10.39,-6 -10.39,6 0,12 10.39,6 10.39,-6 0,-12"/><polygon class="fractal-4" points="-5.19,-3 -5.19,3 0,6 5.19,3 5.19,-3 0,-6"/><g transform="translate(27, -15.6)"><polygon class="fractal-3" points="-6.93,-4 -6.93,4 0,8 6.93,4 6.93,-4 0,-8"/></g><g transform="translate(-27, -15.6)"><polygon class="fractal-3" points="-6.93,-4 -6.93,4 0,8 6.93,4 6.93,-4 0,-8"/></g><g transform="translate(27, 15.6)"><polygon class="fractal-3" points="-6.93,-4 -6.93,4 0,8 6.93,4 6.93,-4 0,-8"/></g><g transform="translate(-27, 15.6)"><polygon class="fractal-3" points="-6.93,-4 -6.93,4 0,8 6.93,4 6.93,-4 0,-8"/></g><g transform="translate(0, -31.2)"><polygon class="fractal-3" points="-6.93,-4 -6.93,4 0,8 6.93,4 6.93,-4 0,-8"/></g><g transform="translate(0, 31.2)"><polygon class="fractal-3" points="-6.93,-4 -6.93,4 0,8 6.93,4 6.93,-4 0,-8"/></g></g></svg>